<svg width="118" height="98" viewBox="0 0 118 98" fill="none" xmlns="http://www.w3.org/2000/svg">
<path d="M44.8696 89.676C44.8696 90.204 44.7976 90.564 44.6536 90.756C44.5336 90.948 44.3416 91.044 44.0776 91.044C43.7656 91.044 43.4536 90.864 43.1416 90.504C42.8536 90.168 42.5536 89.772 42.2416 89.316C41.9536 88.86 41.6536 88.464 41.3416 88.128C41.0536 87.768 40.7536 87.588 40.4416 87.588C40.1056 87.588 39.6256 87.768 39.0016 88.128C38.4016 88.464 37.6096 88.86 36.6256 89.316C35.6416 89.748 34.4296 90.132 32.9896 90.468C31.5736 90.828 29.8816 91.008 27.9136 91.008C24.1696 91.008 20.7856 90.36 17.7616 89.064C14.7616 87.768 12.1936 85.956 10.0576 83.628C7.92163 81.276 6.27763 78.528 5.12563 75.384C3.97363 72.216 3.39763 68.772 3.39763 65.052C3.39763 61.164 3.99763 57.612 5.19763 54.396C6.39763 51.156 8.07763 48.372 10.2376 46.044C12.4216 43.692 14.9776 41.88 17.9056 40.608C20.8336 39.312 24.0256 38.664 27.4816 38.664C30.0736 38.664 32.1976 38.964 33.8536 39.564C35.5336 40.14 36.8176 40.728 37.7056 41.328C38.6176 41.904 39.2416 42.192 39.5776 42.192C39.9856 42.192 40.3336 41.928 40.6216 41.4C40.9336 40.872 41.2336 40.344 41.5216 39.816C41.8096 39.288 42.1216 39.024 42.4576 39.024C42.6496 39.024 42.7936 39.084 42.8896 39.204C43.0096 39.3 43.1176 39.492 43.2136 39.78L46.4896 52.344C46.5856 52.584 46.5856 52.8 46.4896 52.992C46.3936 53.184 46.2376 53.292 46.0216 53.316C45.8056 53.364 45.6136 53.34 45.4456 53.244C45.2776 53.148 45.1456 52.992 45.0496 52.776C43.8016 49.824 42.3256 47.424 40.6216 45.576C38.9176 43.704 36.9736 42.324 34.7896 41.436C32.6056 40.548 30.1936 40.104 27.5536 40.104C24.0016 40.104 20.8096 41.052 17.9776 42.948C15.1696 44.82 12.9256 47.52 11.2456 51.048C9.58963 54.552 8.76163 58.752 8.76163 63.648C8.76163 68.976 9.64963 73.548 11.4256 77.364C13.2016 81.156 15.6256 84.072 18.6976 86.112C21.7696 88.152 25.2256 89.172 29.0656 89.172C30.4096 89.172 31.7296 89.052 33.0256 88.812C34.3216 88.572 35.4856 88.212 36.5176 87.732C37.5736 87.252 38.4136 86.652 39.0376 85.932C39.6616 85.212 39.9736 84.384 39.9736 83.448V72.468C39.9736 71.988 39.8416 71.628 39.5776 71.388C39.3136 71.148 38.8336 70.98 38.1376 70.884L33.9616 70.38C33.6736 70.332 33.4576 70.26 33.3136 70.164C33.1696 70.044 33.0976 69.912 33.0976 69.768C33.0976 69.576 33.1696 69.432 33.3136 69.336C33.4576 69.24 33.6736 69.192 33.9616 69.192H49.0456C49.3336 69.192 49.5496 69.24 49.6936 69.336C49.8376 69.432 49.9096 69.564 49.9096 69.732C49.9096 69.9 49.8496 70.032 49.7296 70.128C49.6336 70.224 49.4296 70.308 49.1176 70.38L46.6336 70.884C45.9856 71.004 45.5296 71.184 45.2656 71.424C45.0016 71.64 44.8696 71.988 44.8696 72.468V89.676Z" fill="#0C0C0C"/>
<path d="M80.2723 40.972L105.472 12.82C106 12.268 106.312 11.752 106.408 11.272C106.528 10.768 106.456 10.348 106.192 10.012C105.952 9.652 105.532 9.4 104.932 9.256L102.088 8.824C101.8 8.752 101.596 8.668 101.476 8.572C101.356 8.476 101.296 8.344 101.296 8.176C101.296 7.984 101.368 7.84 101.512 7.744C101.68 7.648 101.896 7.6 102.16 7.6H114.4C114.688 7.6 114.904 7.648 115.048 7.744C115.192 7.84 115.264 7.984 115.264 8.176C115.264 8.344 115.18 8.488 115.012 8.608C114.868 8.704 114.58 8.8 114.148 8.896C113.596 8.968 113.068 9.1 112.564 9.292C112.06 9.46 111.544 9.7 111.016 10.012C110.488 10.324 109.912 10.756 109.288 11.308C108.688 11.836 107.992 12.508 107.2 13.324L80.9563 42.34L80.2723 40.972ZM90.9283 29.884L94.8163 26.392L112.132 54.04C112.612 54.832 113.176 55.42 113.824 55.804C114.472 56.188 115.348 56.452 116.452 56.596C117.004 56.692 117.364 56.812 117.532 56.956C117.7 57.076 117.784 57.22 117.784 57.388C117.784 57.58 117.7 57.736 117.532 57.856C117.364 57.952 117.136 58 116.848 58H102.52C102.232 58 102.016 57.952 101.872 57.856C101.728 57.736 101.656 57.58 101.656 57.388C101.656 57.22 101.716 57.088 101.836 56.992C101.98 56.872 102.184 56.788 102.448 56.74L105.76 56.308C106.288 56.212 106.588 55.996 106.66 55.66C106.732 55.324 106.588 54.856 106.228 54.256L90.9283 29.884ZM82.6123 54.904C82.6123 55.288 82.7323 55.6 82.9723 55.84C83.2123 56.056 83.5723 56.2 84.0523 56.272L87.2203 56.74C87.5083 56.812 87.7123 56.896 87.8323 56.992C87.9523 57.088 88.0123 57.232 88.0123 57.424C88.0123 57.592 87.9403 57.736 87.7963 57.856C87.6763 57.952 87.4723 58 87.1843 58H72.7483C72.4603 58 72.2443 57.952 72.1003 57.856C71.9803 57.736 71.9203 57.592 71.9203 57.424C71.9203 57.064 72.1843 56.836 72.7123 56.74L75.9163 56.272C76.3963 56.2 76.7563 56.056 76.9963 55.84C77.2603 55.6 77.3923 55.288 77.3923 54.904V10.696C77.3923 10.312 77.2603 10.012 76.9963 9.796C76.7563 9.556 76.3963 9.4 75.9163 9.328L72.7123 8.86C72.1843 8.764 71.9203 8.536 71.9203 8.176C71.9203 7.984 71.9803 7.84 72.1003 7.744C72.2443 7.648 72.4603 7.6 72.7483 7.6H87.2563C87.5443 7.6 87.7483 7.648 87.8683 7.744C88.0123 7.84 88.0843 7.984 88.0843 8.176C88.0843 8.536 87.8203 8.764 87.2923 8.86L84.0883 9.328C83.6083 9.4 83.2363 9.556 82.9723 9.796C82.7323 10.012 82.6123 10.312 82.6123 10.696V54.904Z" fill="#0C0C0C"/>
<line x1="60.5" y1="-2.18557e-08" x2="60.5" y2="98" stroke="#0C0C0C"/>
</svg>
