<svg width="201" height="75" viewBox="0 0 201 75" fill="none" xmlns="http://www.w3.org/2000/svg">
<path d="M25.32 29.74C25.32 30.0867 25.2667 30.3267 25.16 30.46C25.0533 30.5933 24.8933 30.66 24.68 30.66C24.4667 30.66 24.28 30.56 24.12 30.36C23.9733 30.1733 23.84 29.9533 23.72 29.7C23.6 29.4467 23.4733 29.2267 23.34 29.04C23.22 28.84 23.0667 28.74 22.88 28.74C22.6533 28.74 22.36 28.84 22 29.04C21.64 29.2267 21.18 29.4467 20.62 29.7C20.06 29.94 19.3733 30.16 18.56 30.36C17.7467 30.56 16.78 30.66 15.66 30.66C13.54 30.66 11.6333 30.3 9.94 29.58C8.24667 28.8467 6.8 27.8267 5.6 26.52C4.41333 25.2133 3.5 23.6733 2.86 21.9C2.22 20.1267 1.9 18.1933 1.9 16.1C1.9 13.9667 2.23333 12.0067 2.9 10.22C3.56667 8.42 4.5 6.86667 5.7 5.56C6.91333 4.25333 8.33333 3.24 9.96 2.52C11.6 1.78667 13.3867 1.42 15.32 1.42C16.8133 1.42 18.0333 1.58 18.98 1.9C19.94 2.22 20.68 2.54 21.2 2.86C21.72 3.16666 22.0867 3.32 22.3 3.32C22.58 3.32 22.78 3.18666 22.9 2.92C23.02 2.65333 23.14 2.38667 23.26 2.12C23.3933 1.85333 23.5867 1.72 23.84 1.72C23.9733 1.72 24.08 1.76 24.16 1.84C24.2533 1.92 24.3333 2.06 24.4 2.26L26.44 9.04C26.5067 9.24 26.5 9.41333 26.42 9.56C26.34 9.69333 26.2067 9.76667 26.02 9.78C25.86 9.80667 25.7133 9.78667 25.58 9.72C25.46 9.64 25.36 9.51333 25.28 9.34C24.5333 7.72667 23.68 6.42 22.72 5.42C21.76 4.42 20.6733 3.68667 19.46 3.22C18.26 2.75333 16.9133 2.52 15.42 2.52C13.46 2.52 11.6933 3.04667 10.12 4.1C8.56 5.15333 7.32 6.64 6.4 8.56C5.48 10.4667 5.02 12.72 5.02 15.32C5.02 18.24 5.52 20.7467 6.52 22.84C7.52 24.92 8.87333 26.5133 10.58 27.62C12.3 28.7267 14.2333 29.28 16.38 29.28C17.2467 29.28 18.0467 29.2133 18.78 29.08C19.5267 28.9467 20.1667 28.74 20.7 28.46C21.2467 28.18 21.6733 27.84 21.98 27.44C22.2867 27.0267 22.44 26.56 22.44 26.04V20.62C22.44 20.2867 22.3533 20.04 22.18 19.88C22.0067 19.72 21.68 19.6 21.2 19.52L19.36 19.26C19.1467 19.22 18.98 19.16 18.86 19.08C18.74 18.9867 18.68 18.88 18.68 18.76C18.68 18.6133 18.74 18.5067 18.86 18.44C18.98 18.36 19.1533 18.32 19.38 18.32H27.64C27.88 18.32 28.0533 18.36 28.16 18.44C28.28 18.5067 28.34 18.6133 28.34 18.76C28.34 18.88 28.2933 18.98 28.2 19.06C28.12 19.1267 27.96 19.1933 27.72 19.26L26.52 19.5C26.08 19.6067 25.7667 19.74 25.58 19.9C25.4067 20.0467 25.32 20.2867 25.32 20.62V29.74ZM43.3113 27.7V27.36L43.1913 27.24V16.3C43.1913 14.9133 42.8579 13.86 42.1913 13.14C41.5379 12.42 40.5913 12.06 39.3513 12.06C38.1113 12.06 37.1979 12.32 36.6113 12.84C36.0379 13.3467 35.7513 13.9333 35.7513 14.6V15.92C35.7513 16.4 35.5979 16.7667 35.2913 17.02C34.9979 17.2733 34.5979 17.4 34.0913 17.4C33.6513 17.4 33.3046 17.2667 33.0513 17C32.7979 16.7333 32.6713 16.3733 32.6713 15.92C32.6713 15.1467 32.9579 14.4 33.5313 13.68C34.1046 12.96 34.9246 12.3733 35.9913 11.92C37.0713 11.4533 38.3513 11.22 39.8313 11.22C41.8846 11.22 43.4113 11.6933 44.4113 12.64C45.4113 13.5733 45.9113 14.8267 45.9113 16.4V27.58C45.9113 28.0867 45.9979 28.4533 46.1713 28.68C46.3579 28.8933 46.5979 29 46.8913 29C47.2513 29 47.5046 28.92 47.6513 28.76C47.7979 28.6 47.9179 28.4333 48.0113 28.26C48.0646 28.1933 48.1179 28.1333 48.1713 28.08C48.2246 28.0267 48.2979 28 48.3913 28C48.4846 28 48.5513 28.0333 48.5913 28.1C48.6446 28.1667 48.6713 28.2667 48.6713 28.4C48.6713 28.6933 48.5713 29 48.3713 29.32C48.1846 29.6267 47.8979 29.8867 47.5113 30.1C47.1246 30.3133 46.6446 30.42 46.0713 30.42C45.1779 30.42 44.4913 30.1933 44.0113 29.74C43.5446 29.2867 43.3113 28.6067 43.3113 27.7ZM31.7313 25.92C31.7313 24.4533 32.3779 23.2333 33.6713 22.26C34.9646 21.2867 36.7646 20.8 39.0713 20.8C40.0313 20.8 40.9113 20.8933 41.7113 21.08C42.5113 21.2667 43.2313 21.5 43.8713 21.78L43.6913 22.56C43.0513 22.3067 42.3846 22.0933 41.6913 21.92C41.0113 21.7333 40.2646 21.64 39.4513 21.64C37.9179 21.64 36.7246 21.9933 35.8713 22.7C35.0313 23.3933 34.6113 24.3267 34.6113 25.5C34.6113 26.6467 34.9513 27.5333 35.6313 28.16C36.3246 28.7867 37.2046 29.1 38.2713 29.1C39.2979 29.1 40.2846 28.8733 41.2313 28.42C42.1913 27.9533 43.0179 27.2867 43.7113 26.42L44.0713 27.04C43.2713 28.12 42.2646 28.9533 41.0513 29.54C39.8379 30.1267 38.5513 30.42 37.1913 30.42C35.5779 30.42 34.2646 30.02 33.2513 29.22C32.2379 28.42 31.7313 27.32 31.7313 25.92ZM55.8847 1.44V27.3L54.5447 29.98C54.3447 30.1133 54.1847 30.2133 54.0647 30.28C53.9447 30.3467 53.8114 30.38 53.6647 30.38C53.518 30.38 53.398 30.3333 53.3047 30.24C53.2114 30.1467 53.1647 29.9933 53.1647 29.78V3.62C53.1647 3.38 53.118 3.20667 53.0247 3.1C52.9447 2.99333 52.798 2.93333 52.5847 2.92L50.9047 2.9C50.718 2.88667 50.5847 2.85333 50.5047 2.8C50.4247 2.73333 50.3847 2.64667 50.3847 2.54C50.3847 2.42 50.4247 2.32666 50.5047 2.26C50.5847 2.18 50.7314 2.1 50.9447 2.02L54.0047 1.02C54.3114 0.913332 54.558 0.84 54.7447 0.799999C54.9314 0.759999 55.0847 0.739999 55.2047 0.739999C55.4447 0.739999 55.618 0.799998 55.7247 0.919998C55.8314 1.04 55.8847 1.21333 55.8847 1.44ZM55.1647 16.42L54.8047 15.58C55.818 14.1667 56.9647 13.0867 58.2447 12.34C59.5247 11.5933 60.8914 11.22 62.3447 11.22C63.878 11.22 65.2447 11.6133 66.4447 12.4C67.658 13.1867 68.6114 14.28 69.3047 15.68C69.998 17.0667 70.3447 18.66 70.3447 20.46C70.3447 22.5133 69.9514 24.2867 69.1647 25.78C68.378 27.2733 67.3114 28.42 65.9647 29.22C64.6314 30.02 63.1447 30.42 61.5047 30.42C59.9447 30.42 58.5514 30.0267 57.3247 29.24C56.1114 28.4533 55.1514 27.3667 54.4447 25.98L54.9847 25.24C55.678 26.4933 56.558 27.4667 57.6247 28.16C58.6914 28.8533 59.8514 29.2 61.1047 29.2C62.2914 29.2 63.358 28.8867 64.3047 28.26C65.2647 27.6333 66.0247 26.6933 66.5847 25.44C67.158 24.1867 67.4447 22.64 67.4447 20.8C67.4447 19.04 67.178 17.5533 66.6447 16.34C66.1247 15.1267 65.4047 14.2067 64.4847 13.58C63.5647 12.94 62.518 12.62 61.3447 12.62C60.2247 12.62 59.1314 12.94 58.0647 13.58C57.0114 14.22 56.0447 15.1667 55.1647 16.42ZM78.6103 19.88C78.6103 18.04 78.8836 16.4733 79.4303 15.18C79.9903 13.8867 80.7103 12.9067 81.5903 12.24C82.4703 11.56 83.397 11.22 84.3703 11.22C85.477 11.22 86.337 11.52 86.9503 12.12C87.577 12.7067 87.8903 13.4867 87.8903 14.46C87.8903 15.0867 87.7436 15.5733 87.4503 15.92C87.1703 16.2667 86.8103 16.44 86.3703 16.44C85.9303 16.44 85.577 16.3067 85.3103 16.04C85.0436 15.7733 84.9103 15.3933 84.9103 14.9V14.3C84.9103 13.8067 84.7903 13.4467 84.5503 13.22C84.3236 12.98 83.937 12.86 83.3903 12.86C82.7236 12.86 82.0636 13.1267 81.4103 13.66C80.7703 14.1933 80.2436 14.9867 79.8303 16.04C79.417 17.0933 79.2103 18.4067 79.2103 19.98L78.6103 19.88ZM79.1103 12.12L79.2103 17.3V27.9C79.2103 28.1667 79.2836 28.38 79.4303 28.54C79.5903 28.7 79.8236 28.7933 80.1303 28.82L82.0303 29.06C82.2436 29.0867 82.4036 29.14 82.5103 29.22C82.617 29.3 82.6703 29.4133 82.6703 29.56C82.6703 29.6933 82.6103 29.8 82.4903 29.88C82.3836 29.96 82.2303 30 82.0303 30H74.5303C74.3303 30 74.177 29.96 74.0703 29.88C73.9636 29.8 73.9103 29.6933 73.9103 29.56C73.9103 29.44 73.957 29.3467 74.0503 29.28C74.1436 29.2 74.2903 29.1333 74.4903 29.08L75.6503 28.88C75.917 28.8267 76.117 28.7267 76.2503 28.58C76.397 28.42 76.4703 28.2 76.4703 27.92V14.3C76.4703 14.06 76.4236 13.8867 76.3303 13.78C76.2503 13.6733 76.1036 13.6133 75.8903 13.6L74.2103 13.58C74.0236 13.5667 73.8903 13.5267 73.8103 13.46C73.7303 13.3933 73.6903 13.3133 73.6903 13.22C73.6903 13.1 73.7303 13 73.8103 12.92C73.9036 12.84 74.057 12.7667 74.2703 12.7L77.3103 11.72C77.6436 11.6 77.9036 11.52 78.0903 11.48C78.277 11.44 78.4236 11.42 78.5303 11.42C78.717 11.42 78.857 11.48 78.9503 11.6C79.0436 11.7067 79.097 11.88 79.1103 12.12ZM95.6756 12.12V27.9C95.6756 28.18 95.7423 28.4 95.8756 28.56C96.0223 28.72 96.229 28.8267 96.4956 28.88L97.6156 29.08C97.8156 29.12 97.9623 29.18 98.0556 29.26C98.149 29.34 98.1956 29.44 98.1956 29.56C98.1956 29.6933 98.1423 29.8 98.0356 29.88C97.929 29.96 97.769 30 97.5556 30H90.9956C90.7956 30 90.6423 29.96 90.5356 29.88C90.429 29.8 90.3756 29.6933 90.3756 29.56C90.3756 29.4533 90.4223 29.36 90.5156 29.28C90.609 29.2 90.749 29.14 90.9356 29.1L92.1156 28.88C92.3823 28.8133 92.5823 28.7067 92.7156 28.56C92.8623 28.4133 92.9356 28.2 92.9356 27.92V14.28C92.9356 14.0533 92.889 13.8867 92.7956 13.78C92.7156 13.6733 92.5756 13.6133 92.3756 13.6L90.6756 13.58C90.5023 13.5667 90.3756 13.5267 90.2956 13.46C90.2156 13.3933 90.1756 13.3133 90.1756 13.22C90.1756 13.1 90.2156 13 90.2956 12.92C90.3756 12.84 90.5223 12.7667 90.7356 12.7L93.7956 11.7C94.1023 11.5933 94.349 11.52 94.5356 11.48C94.7223 11.44 94.8756 11.42 94.9956 11.42C95.2223 11.42 95.389 11.48 95.4956 11.6C95.6156 11.72 95.6756 11.8933 95.6756 12.12ZM93.9156 7.1C93.2756 7.1 92.749 6.90667 92.3356 6.52C91.9356 6.12 91.7356 5.62666 91.7356 5.04C91.7356 4.45333 91.9423 3.96667 92.3556 3.58C92.769 3.19333 93.289 3 93.9156 3C94.5556 3 95.0756 3.2 95.4756 3.6C95.889 3.98667 96.0956 4.46667 96.0956 5.04C96.0956 5.62666 95.889 6.12 95.4756 6.52C95.0623 6.90667 94.5423 7.1 93.9156 7.1ZM117.473 18.56C117.473 19.0133 117.333 19.36 117.053 19.6C116.773 19.8267 116.366 19.94 115.833 19.94H102.853V19.02H113.733C114.306 19.02 114.593 18.7733 114.593 18.28C114.593 16.4267 114.153 14.96 113.273 13.88C112.393 12.7867 111.213 12.24 109.733 12.24C108.546 12.24 107.506 12.5667 106.613 13.22C105.733 13.8733 105.046 14.7867 104.553 15.96C104.06 17.1333 103.813 18.4933 103.813 20.04C103.813 22.7733 104.466 24.8667 105.773 26.32C107.093 27.7733 108.793 28.5 110.873 28.5C112.3 28.5 113.533 28.1333 114.573 27.4C115.626 26.6667 116.3 25.7333 116.593 24.6C116.673 24.44 116.753 24.3267 116.833 24.26C116.913 24.1933 117 24.16 117.093 24.16C117.24 24.16 117.34 24.2133 117.393 24.32C117.46 24.4267 117.486 24.5533 117.473 24.7C117.366 25.7667 116.973 26.7333 116.293 27.6C115.626 28.4667 114.746 29.1533 113.653 29.66C112.573 30.1667 111.36 30.42 110.013 30.42C108.24 30.42 106.686 30.04 105.353 29.28C104.033 28.52 103.006 27.44 102.273 26.04C101.54 24.64 101.173 22.9933 101.173 21.1C101.173 19.2333 101.54 17.56 102.273 16.08C103.006 14.5867 104.04 13.4067 105.373 12.54C106.706 11.66 108.273 11.22 110.073 11.22C111.54 11.22 112.826 11.5333 113.933 12.16C115.053 12.7733 115.92 13.6333 116.533 14.74C117.16 15.8467 117.473 17.12 117.473 18.56ZM126.301 1.44V27.9C126.301 28.18 126.374 28.4 126.521 28.56C126.667 28.72 126.874 28.8267 127.141 28.88L128.241 29.08C128.441 29.12 128.587 29.18 128.681 29.26C128.774 29.34 128.821 29.44 128.821 29.56C128.821 29.6933 128.767 29.8 128.661 29.88C128.554 29.96 128.401 30 128.201 30H121.621C121.421 30 121.267 29.96 121.161 29.88C121.067 29.8 121.021 29.6933 121.021 29.56C121.021 29.44 121.067 29.3467 121.161 29.28C121.254 29.2 121.394 29.1333 121.581 29.08L122.741 28.88C123.007 28.8133 123.214 28.7067 123.361 28.56C123.507 28.4133 123.581 28.2 123.581 27.92V3.62C123.581 3.38 123.534 3.20667 123.441 3.1C123.361 2.99333 123.214 2.93333 123.001 2.92L121.321 2.9C121.134 2.88667 121.001 2.85333 120.921 2.8C120.841 2.73333 120.801 2.64667 120.801 2.54C120.801 2.42 120.841 2.32666 120.921 2.26C121.001 2.18 121.147 2.1 121.361 2.02L124.421 1.02C124.727 0.913332 124.974 0.84 125.161 0.799999C125.347 0.759999 125.501 0.739999 125.621 0.739999C125.861 0.739999 126.034 0.799998 126.141 0.919998C126.247 1.04 126.301 1.21333 126.301 1.44ZM143.975 27.7V27.36L143.855 27.24V16.3C143.855 14.9133 143.522 13.86 142.855 13.14C142.202 12.42 141.255 12.06 140.015 12.06C138.775 12.06 137.862 12.32 137.275 12.84C136.702 13.3467 136.415 13.9333 136.415 14.6V15.92C136.415 16.4 136.262 16.7667 135.955 17.02C135.662 17.2733 135.262 17.4 134.755 17.4C134.315 17.4 133.969 17.2667 133.715 17C133.462 16.7333 133.335 16.3733 133.335 15.92C133.335 15.1467 133.622 14.4 134.195 13.68C134.769 12.96 135.589 12.3733 136.655 11.92C137.735 11.4533 139.015 11.22 140.495 11.22C142.549 11.22 144.075 11.6933 145.075 12.64C146.075 13.5733 146.575 14.8267 146.575 16.4V27.58C146.575 28.0867 146.662 28.4533 146.835 28.68C147.022 28.8933 147.262 29 147.555 29C147.915 29 148.169 28.92 148.315 28.76C148.462 28.6 148.582 28.4333 148.675 28.26C148.729 28.1933 148.782 28.1333 148.835 28.08C148.889 28.0267 148.962 28 149.055 28C149.149 28 149.215 28.0333 149.255 28.1C149.309 28.1667 149.335 28.2667 149.335 28.4C149.335 28.6933 149.235 29 149.035 29.32C148.849 29.6267 148.562 29.8867 148.175 30.1C147.789 30.3133 147.309 30.42 146.735 30.42C145.842 30.42 145.155 30.1933 144.675 29.74C144.209 29.2867 143.975 28.6067 143.975 27.7ZM132.395 25.92C132.395 24.4533 133.042 23.2333 134.335 22.26C135.629 21.2867 137.429 20.8 139.735 20.8C140.695 20.8 141.575 20.8933 142.375 21.08C143.175 21.2667 143.895 21.5 144.535 21.78L144.355 22.56C143.715 22.3067 143.049 22.0933 142.355 21.92C141.675 21.7333 140.929 21.64 140.115 21.64C138.582 21.64 137.389 21.9933 136.535 22.7C135.695 23.3933 135.275 24.3267 135.275 25.5C135.275 26.6467 135.615 27.5333 136.295 28.16C136.989 28.7867 137.869 29.1 138.935 29.1C139.962 29.1 140.949 28.8733 141.895 28.42C142.855 27.9533 143.682 27.2867 144.375 26.42L144.735 27.04C143.935 28.12 142.929 28.9533 141.715 29.54C140.502 30.1267 139.215 30.42 137.855 30.42C136.242 30.42 134.929 30.02 133.915 29.22C132.902 28.42 132.395 27.32 132.395 25.92Z" fill="#0C0C0C"/>
<path d="M51.2278 74.7C49.8545 74.7 48.6145 74.48 47.5078 74.04C46.4011 73.6 45.3545 72.9133 44.3678 71.98C43.3811 71.0333 42.3811 69.82 41.3678 68.34C40.4078 66.9133 39.6011 65.5333 38.9478 64.2C38.3078 62.8667 37.8211 61.56 37.4878 60.28C37.1678 58.9867 37.0078 57.7067 37.0078 56.44C37.0078 55.0267 37.2745 53.7733 37.8078 52.68C38.3411 51.5733 39.1011 50.7067 40.0878 50.08C41.0745 49.44 42.2411 49.12 43.5878 49.12C44.5878 49.12 45.4678 49.3333 46.2278 49.76C47.0011 50.1867 47.5945 50.78 48.0078 51.54C48.4345 52.2867 48.6478 53.1467 48.6478 54.12C48.6478 55.4267 48.3145 56.5733 47.6478 57.56C46.9811 58.5333 46.0078 59.3333 44.7278 59.96C43.4478 60.5867 41.8945 61.0067 40.0678 61.22L39.9278 60.54C41.2478 60.3267 42.3745 59.9533 43.3078 59.42C44.2411 58.8733 44.9478 58.1533 45.4278 57.26C45.9211 56.3533 46.1678 55.2467 46.1678 53.94C46.1678 52.7533 45.9145 51.8 45.4078 51.08C44.9011 50.3467 44.2345 49.98 43.4078 49.98C42.2878 49.98 41.3678 50.48 40.6478 51.48C39.9278 52.4667 39.5678 53.8133 39.5678 55.52C39.5678 56.7467 39.7345 57.9933 40.0678 59.26C40.4145 60.5133 40.9078 61.78 41.5478 63.06C42.1878 64.34 42.9478 65.6133 43.8278 66.88C44.8678 68.3733 45.8345 69.5867 46.7278 70.52C47.6211 71.44 48.5011 72.12 49.3678 72.56C50.2345 72.9867 51.1411 73.2 52.0878 73.2C53.4211 73.2 54.6078 72.8733 55.6478 72.22C56.6878 71.5533 57.5078 70.5533 58.1078 69.22C58.7078 67.8867 59.0078 66.2067 59.0078 64.18C59.0078 61.6067 58.5945 59.1067 57.7678 56.68C56.9545 54.24 55.5811 52.0067 53.6478 49.98C51.8878 48.1133 49.9345 46.6933 47.7878 45.72C45.6411 44.7333 43.2411 44.24 40.5878 44.24C38.4945 44.24 36.7478 44.5667 35.3478 45.22C33.9478 45.86 32.8945 46.7133 32.1878 47.78C31.4945 48.8333 31.1478 50 31.1478 51.28C31.1478 51.8 31.2211 52.2267 31.3678 52.56C31.5145 52.8933 31.6878 53.1933 31.8878 53.46C32.0878 53.7133 32.2611 53.9867 32.4078 54.28C32.5545 54.56 32.6278 54.92 32.6278 55.36C32.6278 55.7867 32.4678 56.1467 32.1478 56.44C31.8411 56.72 31.4478 56.86 30.9678 56.86C30.3011 56.86 29.7678 56.52 29.3678 55.84C28.9678 55.16 28.7678 54.26 28.7678 53.14C28.7678 51.1267 29.2478 49.3867 30.2078 47.92C31.1811 46.44 32.5545 45.3 34.3278 44.5C36.1011 43.7 38.2078 43.3 40.6478 43.3C43.4078 43.3 45.9278 43.8067 48.2078 44.82C50.5011 45.82 52.5878 47.3067 54.4678 49.28C56.4011 51.28 57.8211 53.54 58.7278 56.06C59.6478 58.5667 60.1078 61.22 60.1078 64.02C60.1078 66.3267 59.7411 68.2733 59.0078 69.86C58.2878 71.4467 57.2611 72.6533 55.9278 73.48C54.6078 74.2933 53.0411 74.7 51.2278 74.7ZM45.8878 70.36C46.9545 69.5333 47.8011 68.7667 48.4278 68.06C49.0678 67.34 49.5211 66.6667 49.7878 66.04C50.0678 65.4133 50.2078 64.82 50.2078 64.26C50.2078 63.86 50.1411 63.52 50.0078 63.24C49.8878 62.96 49.7678 62.6933 49.6478 62.44C49.5278 62.1733 49.4678 61.8733 49.4678 61.54C49.4678 61.0867 49.6078 60.7067 49.8878 60.4C50.1811 60.08 50.5545 59.92 51.0078 59.92C51.5011 59.92 51.9078 60.1333 52.2278 60.56C52.5478 60.9733 52.7078 61.5467 52.7078 62.28C52.7078 63.8 52.1878 65.2733 51.1478 66.7C50.1078 68.1133 48.5411 69.5067 46.4478 70.88L45.8878 70.36ZM38.2678 61.44C36.7878 61.72 35.5745 62.18 34.6278 62.82C33.6945 63.4467 33.0078 64.1933 32.5678 65.06C32.1278 65.9267 31.9078 66.8467 31.9078 67.82C31.9078 69.5 32.4145 70.8333 33.4278 71.82C34.4545 72.7933 35.7878 73.28 37.4278 73.28C38.7211 73.28 39.8678 73.0667 40.8678 72.64C41.8811 72.2133 42.8678 71.6333 43.8278 70.9L44.3878 71.56C43.6011 72.1867 42.7878 72.7267 41.9478 73.18C41.1078 73.6333 40.2078 73.9867 39.2478 74.24C38.2878 74.4933 37.2278 74.62 36.0678 74.62C33.8145 74.62 32.0545 74.08 30.7878 73C29.5211 71.9067 28.8878 70.4267 28.8878 68.56C28.8878 67.2 29.2278 65.9733 29.9078 64.88C30.5878 63.7867 31.6211 62.88 33.0078 62.16C34.3945 61.4267 36.1478 60.94 38.2678 60.7V61.44ZM74.8234 63.94L89.2834 48.92C89.5501 48.64 89.7168 48.3867 89.7834 48.16C89.8501 47.92 89.8101 47.72 89.6634 47.56C89.5301 47.4 89.2968 47.28 88.9634 47.2L87.4634 46.96C87.2368 46.9067 87.0768 46.84 86.9834 46.76C86.8901 46.68 86.8434 46.58 86.8434 46.46C86.8434 46.3133 86.9034 46.2 87.0234 46.12C87.1434 46.04 87.3168 46 87.5434 46H94.3234C94.5768 46 94.7568 46.04 94.8634 46.12C94.9701 46.2 95.0234 46.3133 95.0234 46.46C95.0234 46.58 94.9634 46.68 94.8434 46.76C94.7368 46.84 94.5034 46.92 94.1434 47C93.8768 47.0533 93.6234 47.12 93.3834 47.2C93.1568 47.28 92.9168 47.4 92.6634 47.56C92.4234 47.72 92.1434 47.94 91.8234 48.22C91.5034 48.5 91.1168 48.8533 90.6634 49.28L75.3634 65.04L74.8234 63.94ZM80.8634 58.36L83.2234 56.42L93.0434 71.56C93.3101 71.96 93.6234 72.2667 93.9834 72.48C94.3434 72.6933 94.8034 72.84 95.3634 72.92C95.8034 73.0133 96.0834 73.1067 96.2034 73.2C96.3368 73.2933 96.4034 73.4133 96.4034 73.56C96.4034 73.6933 96.3434 73.8 96.2234 73.88C96.1034 73.96 95.9234 74 95.6834 74H87.6834C87.4434 74 87.2634 73.96 87.1434 73.88C87.0368 73.7867 86.9834 73.6733 86.9834 73.54C86.9834 73.4067 87.0301 73.3 87.1234 73.22C87.2301 73.1267 87.3901 73.0667 87.6034 73.04L89.2434 72.8C89.5634 72.7467 89.7368 72.62 89.7634 72.42C89.7901 72.22 89.6968 71.96 89.4834 71.64L80.8634 58.36ZM76.3834 71.86C76.3834 72.1133 76.4568 72.32 76.6034 72.48C76.7634 72.6267 76.9834 72.7267 77.2634 72.78L78.8434 73.02C79.0568 73.0733 79.2034 73.14 79.2834 73.22C79.3768 73.3 79.4234 73.4067 79.4234 73.54C79.4234 73.6733 79.3701 73.7867 79.2634 73.88C79.1701 73.96 79.0101 74 78.7834 74H70.8434C70.6301 74 70.4701 73.96 70.3634 73.88C70.2568 73.7867 70.2034 73.6733 70.2034 73.54C70.2034 73.2733 70.4034 73.1 70.8034 73.02L72.3834 72.78C72.6901 72.7267 72.9234 72.6267 73.0834 72.48C73.2434 72.32 73.3234 72.1133 73.3234 71.86V48.14C73.3234 47.8867 73.2434 47.6867 73.0834 47.54C72.9234 47.38 72.6901 47.2733 72.3834 47.22L70.8034 46.98C70.4034 46.9 70.2034 46.7267 70.2034 46.46C70.2034 46.3133 70.2568 46.2 70.3634 46.12C70.4701 46.04 70.6301 46 70.8434 46H78.8434C79.0701 46 79.2301 46.04 79.3234 46.12C79.4301 46.2 79.4834 46.3133 79.4834 46.46C79.4834 46.7267 79.2901 46.9 78.9034 46.98L77.3034 47.22C77.0101 47.2733 76.7834 47.38 76.6234 47.54C76.4634 47.6867 76.3834 47.8867 76.3834 48.14V71.86ZM107.169 55.24C108.996 55.24 110.609 55.6467 112.009 56.46C113.423 57.2733 114.529 58.4067 115.329 59.86C116.129 61.3 116.529 62.96 116.529 64.84C116.529 66.6933 116.123 68.3467 115.309 69.8C114.509 71.24 113.403 72.3733 111.989 73.2C110.576 74.0133 108.943 74.42 107.089 74.42C105.263 74.42 103.649 74.0133 102.249 73.2C100.849 72.3867 99.7494 71.26 98.9494 69.82C98.1494 68.3667 97.7494 66.7067 97.7494 64.84C97.7494 62.96 98.1427 61.3 98.9294 59.86C99.7294 58.42 100.836 57.2933 102.249 56.48C103.663 55.6533 105.303 55.24 107.169 55.24ZM108.469 73.24C109.763 73.08 110.829 72.6 111.669 71.8C112.509 71 113.096 69.94 113.429 68.62C113.763 67.2867 113.803 65.7533 113.549 64.02C113.296 62.2333 112.809 60.7467 112.089 59.56C111.369 58.36 110.469 57.4933 109.389 56.96C108.309 56.4267 107.109 56.2467 105.789 56.42C104.483 56.58 103.409 57.06 102.569 57.86C101.729 58.66 101.149 59.7267 100.829 61.06C100.509 62.38 100.476 63.9067 100.729 65.64C100.983 67.4133 101.469 68.9 102.189 70.1C102.923 71.2867 103.823 72.1533 104.889 72.7C105.969 73.2333 107.163 73.4133 108.469 73.24ZM125.415 56.12V71.9C125.415 72.18 125.482 72.4 125.615 72.56C125.762 72.72 125.968 72.8267 126.235 72.88L127.335 73.08C127.708 73.1733 127.895 73.3333 127.895 73.56C127.895 73.8533 127.682 74 127.255 74H120.715C120.515 74 120.362 73.96 120.255 73.88C120.162 73.8 120.115 73.6933 120.115 73.56C120.115 73.4533 120.162 73.36 120.255 73.28C120.348 73.2 120.488 73.14 120.675 73.1L121.855 72.88C122.122 72.8133 122.322 72.7067 122.455 72.56C122.602 72.4133 122.675 72.2 122.675 71.92V58.28C122.675 58.0533 122.628 57.8867 122.535 57.78C122.455 57.6733 122.308 57.6133 122.095 57.6L120.415 57.58C120.228 57.5667 120.095 57.5267 120.015 57.46C119.935 57.3933 119.895 57.3133 119.895 57.22C119.895 57.1 119.935 57 120.015 56.92C120.108 56.84 120.262 56.7667 120.475 56.7L123.535 55.7C123.828 55.5933 124.068 55.52 124.255 55.48C124.442 55.44 124.602 55.42 124.735 55.42C124.962 55.42 125.128 55.48 125.235 55.6C125.355 55.72 125.415 55.8933 125.415 56.12ZM124.935 60.06L124.375 59.5L125.275 58.72C126.728 57.4533 127.968 56.5533 128.995 56.02C130.035 55.4867 131.055 55.22 132.055 55.22C133.575 55.22 134.748 55.72 135.575 56.72C136.415 57.72 136.942 59.1067 137.155 60.88L138.515 71.78C138.555 72.1 138.648 72.3533 138.795 72.54C138.955 72.7133 139.182 72.8333 139.475 72.9L140.475 73.1C140.662 73.14 140.802 73.2 140.895 73.28C140.988 73.3467 141.035 73.44 141.035 73.56C141.035 73.6933 140.982 73.8 140.875 73.88C140.782 73.96 140.628 74 140.415 74H133.835C133.395 74 133.175 73.8533 133.175 73.56C133.175 73.3333 133.362 73.1733 133.735 73.08L134.895 72.88C135.202 72.8267 135.435 72.7067 135.595 72.52C135.755 72.3333 135.815 72.0867 135.775 71.78L134.415 61.3C134.228 59.82 133.842 58.7133 133.255 57.98C132.668 57.2333 131.822 56.86 130.715 56.86C130.008 56.86 129.262 57.06 128.475 57.46C127.688 57.86 126.802 58.48 125.815 59.32L124.935 60.06ZM147.901 63.88C147.901 62.04 148.174 60.4733 148.721 59.18C149.281 57.8867 150.001 56.9067 150.881 56.24C151.761 55.56 152.688 55.22 153.661 55.22C154.768 55.22 155.628 55.52 156.241 56.12C156.868 56.7067 157.181 57.4867 157.181 58.46C157.181 59.0867 157.034 59.5733 156.741 59.92C156.461 60.2667 156.101 60.44 155.661 60.44C155.221 60.44 154.868 60.3067 154.601 60.04C154.334 59.7733 154.201 59.3933 154.201 58.9V58.3C154.201 57.8067 154.081 57.4467 153.841 57.22C153.614 56.98 153.228 56.86 152.681 56.86C152.014 56.86 151.354 57.1267 150.701 57.66C150.061 58.1933 149.534 58.9867 149.121 60.04C148.708 61.0933 148.501 62.4067 148.501 63.98L147.901 63.88ZM148.401 56.12L148.501 61.3V71.9C148.501 72.1667 148.574 72.38 148.721 72.54C148.881 72.7 149.114 72.7933 149.421 72.82L151.321 73.06C151.534 73.0867 151.694 73.14 151.801 73.22C151.908 73.3 151.961 73.4133 151.961 73.56C151.961 73.6933 151.901 73.8 151.781 73.88C151.674 73.96 151.521 74 151.321 74H143.821C143.621 74 143.468 73.96 143.361 73.88C143.254 73.8 143.201 73.6933 143.201 73.56C143.201 73.44 143.248 73.3467 143.341 73.28C143.434 73.2 143.581 73.1333 143.781 73.08L144.941 72.88C145.208 72.8267 145.408 72.7267 145.541 72.58C145.688 72.42 145.761 72.2 145.761 71.92V58.3C145.761 58.06 145.714 57.8867 145.621 57.78C145.541 57.6733 145.394 57.6133 145.181 57.6L143.501 57.58C143.314 57.5667 143.181 57.5267 143.101 57.46C143.021 57.3933 142.981 57.3133 142.981 57.22C142.981 57.1 143.021 57 143.101 56.92C143.194 56.84 143.348 56.7667 143.561 56.7L146.601 55.72C146.934 55.6 147.194 55.52 147.381 55.48C147.568 55.44 147.714 55.42 147.821 55.42C148.008 55.42 148.148 55.48 148.241 55.6C148.334 55.7067 148.388 55.88 148.401 56.12ZM171.586 71.7V71.36L171.466 71.24V60.3C171.466 58.9133 171.133 57.86 170.466 57.14C169.813 56.42 168.866 56.06 167.626 56.06C166.386 56.06 165.473 56.32 164.886 56.84C164.313 57.3467 164.026 57.9333 164.026 58.6V59.92C164.026 60.4 163.873 60.7667 163.566 61.02C163.273 61.2733 162.873 61.4 162.366 61.4C161.926 61.4 161.58 61.2667 161.326 61C161.073 60.7333 160.946 60.3733 160.946 59.92C160.946 59.1467 161.233 58.4 161.806 57.68C162.38 56.96 163.2 56.3733 164.266 55.92C165.346 55.4533 166.626 55.22 168.106 55.22C170.16 55.22 171.686 55.6933 172.686 56.64C173.686 57.5733 174.186 58.8267 174.186 60.4V71.58C174.186 72.0867 174.273 72.4533 174.446 72.68C174.633 72.8933 174.873 73 175.166 73C175.526 73 175.78 72.92 175.926 72.76C176.073 72.6 176.193 72.4333 176.286 72.26C176.34 72.1933 176.393 72.1333 176.446 72.08C176.5 72.0267 176.573 72 176.666 72C176.76 72 176.826 72.0333 176.866 72.1C176.92 72.1667 176.946 72.2667 176.946 72.4C176.946 72.6933 176.846 73 176.646 73.32C176.46 73.6267 176.173 73.8867 175.786 74.1C175.4 74.3133 174.92 74.42 174.346 74.42C173.453 74.42 172.766 74.1933 172.286 73.74C171.82 73.2867 171.586 72.6067 171.586 71.7ZM160.006 69.92C160.006 68.4533 160.653 67.2333 161.946 66.26C163.24 65.2867 165.04 64.8 167.346 64.8C168.306 64.8 169.186 64.8933 169.986 65.08C170.786 65.2667 171.506 65.5 172.146 65.78L171.966 66.56C171.326 66.3067 170.66 66.0933 169.966 65.92C169.286 65.7333 168.54 65.64 167.726 65.64C166.193 65.64 165 65.9933 164.146 66.7C163.306 67.3933 162.886 68.3267 162.886 69.5C162.886 70.6467 163.226 71.5333 163.906 72.16C164.6 72.7867 165.48 73.1 166.546 73.1C167.573 73.1 168.56 72.8733 169.506 72.42C170.466 71.9533 171.293 71.2867 171.986 70.42L172.346 71.04C171.546 72.12 170.54 72.9533 169.326 73.54C168.113 74.1267 166.826 74.42 165.466 74.42C163.853 74.42 162.54 74.02 161.526 73.22C160.513 72.42 160.006 71.32 160.006 69.92ZM194.34 70.9L194.3 70.72V47.62C194.3 47.38 194.253 47.2067 194.16 47.1C194.08 46.9933 193.933 46.9333 193.72 46.92L192.04 46.9C191.853 46.8867 191.72 46.8533 191.64 46.8C191.56 46.7333 191.52 46.6467 191.52 46.54C191.52 46.42 191.56 46.3267 191.64 46.26C191.733 46.18 191.88 46.1 192.08 46.02L195.16 45.02C195.453 44.9267 195.693 44.86 195.88 44.82C196.066 44.7667 196.226 44.74 196.36 44.74C196.586 44.74 196.753 44.8 196.86 44.92C196.966 45.04 197.02 45.2133 197.02 45.44V71.9C197.02 72.18 197.093 72.4 197.24 72.56C197.386 72.72 197.593 72.8267 197.86 72.88L198.96 73.08C199.16 73.12 199.306 73.18 199.4 73.26C199.506 73.34 199.56 73.44 199.56 73.56C199.56 73.6933 199.506 73.8 199.4 73.88C199.293 73.96 199.133 74 198.92 74H195.74C195.273 74 194.92 73.8867 194.68 73.66C194.453 73.42 194.34 73.04 194.34 72.52V70.9ZM179.82 65.18C179.82 63.1133 180.22 61.34 181.02 59.86C181.833 58.3667 182.906 57.22 184.24 56.42C185.586 55.62 187.066 55.22 188.68 55.22C190.24 55.22 191.626 55.6133 192.84 56.4C194.066 57.1867 195.033 58.2733 195.74 59.66L195.2 60.4C194.52 59.1467 193.64 58.1733 192.56 57.48C191.48 56.7867 190.313 56.44 189.06 56.44C187.886 56.44 186.82 56.76 185.86 57.4C184.9 58.0267 184.14 58.96 183.58 60.2C183.02 61.44 182.74 62.9867 182.74 64.84C182.74 66.5867 183 68.0667 183.52 69.28C184.053 70.4933 184.78 71.4133 185.7 72.04C186.62 72.6667 187.66 72.98 188.82 72.98C189.953 72.98 191.046 72.6667 192.1 72.04C193.166 71.4 194.14 70.46 195.02 69.22L195.38 70.04C194.366 71.4667 193.22 72.5533 191.94 73.3C190.66 74.0467 189.293 74.42 187.84 74.42C186.306 74.42 184.933 74.0267 183.72 73.24C182.52 72.4533 181.566 71.3667 180.86 69.98C180.166 68.58 179.82 66.98 179.82 65.18Z" fill="#0C0C0C"/>
</svg>
