<?xml version="1.0" ?><!DOCTYPE svg  PUBLIC '-//W3C//DTD SVG 1.1//EN'  'http://www.w3.org/Graphics/SVG/1.1/DTD/svg11.dtd'><svg enable-background="new 0 0 64 64" id="Layer_1" version="1.1" viewBox="0 0 64 64" xml:space="preserve" xmlns="http://www.w3.org/2000/svg" xmlns:xlink="http://www.w3.org/1999/xlink"><g id="champagne_1_"><g><g><g><g><path d="M14.968,55.02L14.968,55.02c-1.154,0-2.367-0.577-3.414-1.624l-4.95-4.95       c-0.925-0.924-1.478-1.959-1.599-2.993c-0.12-1.022,0.197-1.968,0.892-2.663l12.727-12.729c2.3-2.299,4.927-3.596,7.968-5.097       c3.888-1.92,8.295-4.095,13.246-9.045l0.354-0.354l4.243,4.242l-0.354,0.354c-4.923,4.923-7.067,9.281-8.959,13.126       c-1.508,3.066-2.811,5.714-5.184,8.087L17.211,54.103C16.612,54.702,15.836,55.02,14.968,55.02z M40.19,16.978       c-4.921,4.819-9.29,6.975-13.154,8.883c-2.962,1.462-5.521,2.725-7.704,4.907L6.605,43.496       c-0.481,0.481-0.691,1.117-0.606,1.839c0.095,0.809,0.549,1.64,1.313,2.403l4.95,4.95c0.858,0.858,1.819,1.331,2.707,1.331l0,0       c0.597,0,1.128-0.216,1.536-0.624l12.728-12.729c2.256-2.256,3.524-4.835,4.994-7.821c1.88-3.822,4.006-8.143,8.797-13.036       L40.19,16.978z" /></g></g><g><g><g><path d="M44.436,20.599c-0.401,0-0.778-0.155-1.061-0.438l-3.536-3.535c-0.584-0.585-0.584-1.537,0-2.122        l1.415-1.414c0.566-0.563,1.556-0.563,2.122,0l3.536,3.536c0.282,0.282,0.438,0.659,0.438,1.061s-0.156,0.778-0.438,1.061        l-1.414,1.414C45.214,20.443,44.837,20.599,44.436,20.599z M42.314,13.652c-0.134,0-0.26,0.051-0.354,0.145l-1.414,1.414        c-0.194,0.195-0.194,0.513,0,0.708l3.536,3.535c0.188,0.188,0.52,0.188,0.707,0l1.414-1.414        c0.094-0.094,0.145-0.219,0.145-0.354s-0.051-0.26-0.145-0.354l-3.535-3.536C42.574,13.703,42.448,13.652,42.314,13.652z" /></g></g></g><g><g><path d="M17.725,53.589l-0.268-0.059c-0.2-0.044-2.076-0.551-6.256-4.731c-4.182-4.181-4.687-6.057-4.731-6.257       l-0.059-0.268l10.063-10.063l0.169,0.942c0.001,0.006,0.419,1.707,4.458,5.745c4.038,4.038,5.74,4.456,5.756,4.46l0.887,0.199       l-0.632,0.645L17.725,53.589z M7.537,42.563c0.262,0.603,1.218,2.375,4.372,5.528c3.147,3.147,4.919,4.106,5.528,4.371       l8.434-8.433c-0.92-0.465-2.666-1.612-5.477-4.424c-2.812-2.812-3.958-4.557-4.423-5.477L7.537,42.563z" /></g></g><g><g><path d="M29.419,27.42l-1.832-1.832c0.612-0.304,1.238-0.616,1.88-0.949l1.291,1.291       c0.279-0.109,0.591-0.18,0.95-0.18c0.112,0,0.211,0.02,0.316,0.031l-2.37-2.37l-0.326,0.172       c-0.961,0.505-1.887,0.962-2.809,1.417l-0.625,0.309l3.442,3.442C29.259,28.309,29.289,27.848,29.419,27.42z" /><path d="M34.094,27.852c0.061,0.435,0.025,0.886-0.114,1.299l1.396,1.396c-0.331,0.643-0.643,1.27-0.946,1.884       l-1.839-1.839c-0.263,0.095-0.552,0.158-0.883,0.158c-0.147,0-0.28-0.021-0.414-0.041l3.416,3.416l0.363-0.738       c0.43-0.872,0.873-1.772,1.358-2.703l0.169-0.325L34.094,27.852z" /></g></g><g><g><path d="M31.707,31.293c-0.801,0-1.554-0.313-2.121-0.879c-1.169-1.17-1.169-3.072,0-4.242       c1.134-1.133,3.108-1.133,4.242,0c1.169,1.17,1.169,3.072,0,4.242C33.261,30.98,32.508,31.293,31.707,31.293z M31.707,26.293       c-0.534,0-1.036,0.208-1.414,0.586c-0.78,0.779-0.78,2.049,0,2.828c0.756,0.756,2.072,0.756,2.828,0       c0.78-0.779,0.78-2.049,0-2.828C32.743,26.501,32.241,26.293,31.707,26.293z" /></g></g><g><g><path d="M51.092,11.529c-0.133,0-0.26-0.053-0.354-0.146l-2.121-2.121c-0.195-0.195-0.195-0.512,0-0.707       l3.535-3.535c0.195-0.195,0.512-0.195,0.707,0l2.121,2.121c0.094,0.094,0.146,0.221,0.146,0.354s-0.053,0.26-0.146,0.354       l-3.535,3.535C51.352,11.477,51.225,11.529,51.092,11.529z M49.678,8.908l1.414,1.414l2.828-2.828L52.506,6.08L49.678,8.908z" /></g></g></g><g><g><g><path d="M50.5,44c-0.694,0-1.32-0.28-1.861-0.833c-2.967-3.03-2.73-14.186-2.652-17.852       C45.994,24.948,46,24.67,46,24.5V24h9v0.5c0,0.17,0.006,0.448,0.014,0.815c0.078,3.666,0.314,14.821-2.652,17.852       C51.82,43.72,51.194,44,50.5,44z M46.993,25c-0.002,0.103-0.004,0.215-0.007,0.337c-0.203,9.556,0.594,15.319,2.367,17.131       c0.702,0.717,1.592,0.717,2.294,0c1.773-1.812,2.57-7.575,2.367-17.131c-0.003-0.122-0.005-0.234-0.007-0.337H46.993z" /></g></g><g><g><rect  height="15" width="1" x="50" y="43"/></g></g><g><g><path d="M39.5,59H25c-0.276,0-0.5-0.224-0.5-0.5S24.724,58,25,58h14.5c0.276,0,0.5,0.224,0.5,0.5       S39.776,59,39.5,59z" /></g><g><path d="M42.5,59H42c-0.276,0-0.5-0.224-0.5-0.5S41.724,58,42,58h0.5c0.276,0,0.5,0.224,0.5,0.5       S42.776,59,42.5,59z" /></g><g><path d="M54.5,59h-8c-0.276,0-0.5-0.224-0.5-0.5s0.224-0.5,0.5-0.5h8c0.276,0,0.5,0.224,0.5,0.5       S54.776,59,54.5,59z" /></g></g></g><g><g><g><path d="M24,11.835c0.315,0.461,0.704,0.85,1.165,1.165c-0.469,0.321-0.863,0.718-1.182,1.189       c-0.318-0.462-0.71-0.854-1.173-1.173C23.282,12.698,23.679,12.304,24,11.835L24,11.835z M24,8c0,3.359-1.641,5-5,5       c3.344,0,5,1.672,5,5c0-3.359,1.625-5,5-5C25.625,13,24,11.391,24,8L24,8z" /></g></g></g><g><g><g><path d="M18.485,20.901c0.18,0.229,0.385,0.434,0.613,0.614c-0.222,0.178-0.421,0.379-0.598,0.602       c-0.182-0.229-0.388-0.436-0.618-0.617C18.105,21.323,18.307,21.124,18.485,20.901L18.485,20.901z M18.5,17.5       c0,2.688-1.313,4-4,4c2.675,0,4,1.338,4,4c0-2.688,1.3-4,4-4C19.8,21.5,18.5,20.213,18.5,17.5L18.5,17.5z" /></g></g></g></g><g><g><g><g><rect  height="3.002" transform="matrix(-0.9659 -0.2588 0.2588 -0.9659 84.3354 32.5795)" width="1" x="43.812" y="9.237"/></g></g></g><g><g><g><rect  height="3.001" transform="matrix(-0.7071 -0.7071 0.7071 -0.7071 72.1282 54.977)" width="1" x="46.95" y="11.05"/></g></g></g><g><g><g><rect  height="3.001" transform="matrix(-0.2588 -0.9659 0.9659 -0.2588 46.8576 67.3321)" width="1" x="48.762" y="14.188"/></g></g></g></g><g><rect  height="1" width="6" x="48" y="31"/><rect clip-rule="evenodd"  fill-rule="evenodd" height="1" width="1" x="52" y="33"/><rect clip-rule="evenodd"  fill-rule="evenodd" height="1" width="1" x="50" y="35"/><rect clip-rule="evenodd"  fill-rule="evenodd" height="1" width="1" x="52" y="27"/><rect clip-rule="evenodd"  fill-rule="evenodd" height="1" width="1" x="50" y="29"/><rect clip-rule="evenodd"  fill-rule="evenodd" height="1" width="1" x="51" y="38"/></g></g></svg>