<svg viewBox="0 0 110 125" fill="none" xmlns="http://www.w3.org/2000/svg">
<path d="M39.8816 90.2762C39.8816 90.8078 39.8123 91.1702 39.6739 91.3635C39.5585 91.5568 39.3738 91.6534 39.1199 91.6534C38.8199 91.6534 38.5199 91.4722 38.2198 91.1098C37.9429 90.7715 37.6544 90.3729 37.3544 89.9138C37.0774 89.4548 36.7889 89.0561 36.4889 88.7179C36.2119 88.3555 35.9234 88.1743 35.6234 88.1743C35.3003 88.1743 34.8387 88.3555 34.2386 88.7179C33.6616 89.0561 32.9 89.4548 31.9537 89.9138C31.0075 90.3487 29.8419 90.7353 28.4572 91.0735C27.0955 91.436 25.4684 91.6171 23.5758 91.6171C19.9754 91.6171 16.7212 90.9648 13.8131 89.6601C10.9282 88.3555 8.45868 86.5313 6.40459 84.1878C4.35051 81.82 2.76955 79.0536 1.66173 75.8886C0.553911 72.6994 0 69.2323 0 65.4874C0 61.5734 0.57699 57.9976 1.73097 54.7601C2.88495 51.4984 4.50052 48.6958 6.57769 46.3522C8.67793 43.9845 11.1359 42.1603 13.9516 40.8798C16.7673 39.5751 19.8369 38.9228 23.1604 38.9228C25.653 38.9228 27.6955 39.2248 29.288 39.8288C30.9036 40.4087 32.1384 41.0006 32.9923 41.6046C33.8693 42.1845 34.4694 42.4744 34.7925 42.4744C35.1849 42.4744 35.5195 42.2086 35.7965 41.6771C36.0965 41.1456 36.385 40.614 36.662 40.0825C36.9389 39.551 37.239 39.2852 37.5621 39.2852C37.7467 39.2852 37.8852 39.3456 37.9775 39.4664C38.0929 39.5631 38.1968 39.7563 38.2891 40.0463L41.4394 52.6944C41.5318 52.936 41.5318 53.1534 41.4394 53.3467C41.3471 53.54 41.1971 53.6487 40.9894 53.6729C40.7817 53.7212 40.597 53.697 40.4355 53.6004C40.2739 53.5037 40.147 53.3467 40.0547 53.1293C38.8545 50.1575 37.4351 47.7414 35.7965 45.8811C34.1578 43.9965 32.2884 42.6073 30.1881 41.7133C28.0879 40.8194 25.7684 40.3724 23.2296 40.3724C19.8138 40.3724 16.7443 41.3268 14.0209 43.2355C11.3205 45.12 9.16261 47.8381 7.54703 51.3897C5.95454 54.9171 5.15829 59.1452 5.15829 64.074C5.15829 69.4377 6.01224 74.0403 7.72013 77.8818C9.42802 81.6992 11.7591 84.6347 14.7133 86.6884C17.6674 88.742 20.9909 89.7689 24.6836 89.7689C25.9761 89.7689 27.2455 89.6481 28.4918 89.4065C29.7381 89.1649 30.8574 88.8024 31.8499 88.3192C32.8654 87.836 33.6731 87.232 34.2732 86.5072C34.8733 85.7824 35.1733 84.9488 35.1733 84.0066V72.9531C35.1733 72.4698 35.0464 72.1074 34.7925 71.8658C34.5386 71.6242 34.077 71.4551 33.4077 71.3585L29.3919 70.8511C29.1149 70.8028 28.9072 70.7303 28.7687 70.6336C28.6303 70.5128 28.561 70.3799 28.561 70.235C28.561 70.0417 28.6303 69.8967 28.7687 69.8001C28.9072 69.7035 29.1149 69.6551 29.3919 69.6551H43.8974C44.1744 69.6551 44.3821 69.7035 44.5206 69.8001C44.659 69.8967 44.7283 70.0296 44.7283 70.1988C44.7283 70.3679 44.6706 70.5008 44.5552 70.5974C44.4629 70.694 44.2667 70.7786 43.9667 70.8511L41.5779 71.3585C40.9548 71.4793 40.5163 71.6605 40.2624 71.9021C40.0085 72.1195 39.8816 72.4698 39.8816 72.9531L39.8816 90.2762Z" fill="#0C0C0C"/>
<path d="M73.9266 41.2462L98.1602 12.9058C98.6679 12.3501 98.9679 11.8307 99.0603 11.3474C99.1757 10.8401 99.1064 10.4173 98.8525 10.079C98.6217 9.7166 98.2179 9.46292 97.6409 9.31795L94.9059 8.88306C94.629 8.81058 94.4328 8.72602 94.3174 8.62938C94.202 8.53273 94.1443 8.39985 94.1443 8.23072C94.1443 8.03744 94.2136 7.89248 94.352 7.79583C94.5136 7.69919 94.7213 7.65087 94.9752 7.65087L106.746 7.65087C107.023 7.65087 107.23 7.69919 107.369 7.79583C107.507 7.89248 107.577 8.03744 107.577 8.23072C107.577 8.39985 107.496 8.54481 107.334 8.66561C107.196 8.76226 106.919 8.8589 106.503 8.95554C105.973 9.02802 105.465 9.16091 104.98 9.35419C104.496 9.52332 103.999 9.76492 103.492 10.079C102.984 10.3931 102.43 10.828 101.83 11.3837C101.253 11.9152 100.584 12.5917 99.8219 13.4132L74.5843 42.6234L73.9266 41.2462ZM84.1739 30.084L87.9128 26.5687L104.565 54.4017C105.026 55.199 105.569 55.791 106.192 56.1775C106.815 56.5641 107.657 56.8299 108.719 56.9748C109.25 57.0715 109.596 57.1923 109.758 57.3372C109.919 57.458 110 57.603 110 57.7721C110 57.9654 109.919 58.1225 109.758 58.2433C109.596 58.3399 109.377 58.3882 109.1 58.3882H95.3214C95.0444 58.3882 94.8367 58.3399 94.6982 58.2433C94.5597 58.1225 94.4905 57.9654 94.4905 57.7721C94.4905 57.603 94.5482 57.4701 94.6636 57.3735C94.8021 57.2527 94.9983 57.1681 95.2521 57.1198L98.4371 56.6849C98.9449 56.5883 99.2334 56.3708 99.3026 56.0326C99.3718 55.6943 99.2334 55.2232 98.8872 54.6192L84.1739 30.084ZM76.1768 55.2715C76.1768 55.6581 76.2922 55.9722 76.523 56.2138C76.7538 56.4312 77.1 56.5762 77.5616 56.6487L80.6081 57.1198C80.8851 57.1923 81.0813 57.2768 81.1967 57.3735C81.3121 57.4701 81.3698 57.6151 81.3698 57.8084C81.3698 57.9775 81.3005 58.1225 81.162 58.2433C81.0466 58.3399 80.8505 58.3882 80.5735 58.3882H66.6911C66.4142 58.3882 66.2065 58.3399 66.068 58.2433C65.9526 58.1225 65.8949 57.9775 65.8949 57.8084C65.8949 57.446 66.1488 57.2164 66.6565 57.1198L69.7376 56.6487C70.1992 56.5762 70.5454 56.4312 70.7762 56.2138C71.0301 55.9722 71.157 55.6581 71.157 55.2715V10.7676C71.157 10.381 71.0301 10.079 70.7762 9.86156C70.5454 9.61996 70.1992 9.46292 69.7376 9.39043L66.6565 8.9193C66.1488 8.82266 65.8949 8.59313 65.8949 8.23072C65.8949 8.03744 65.9526 7.89248 66.068 7.79583C66.2065 7.69919 66.4142 7.65087 66.6911 7.65087L80.6427 7.65087C80.9197 7.65087 81.1159 7.69919 81.2313 7.79583C81.3697 7.89248 81.439 8.03744 81.439 8.23072C81.439 8.59313 81.1851 8.82266 80.6774 8.9193L77.5962 9.39043C77.1346 9.46292 76.7769 9.61996 76.523 9.86156C76.2922 10.079 76.1768 10.381 76.1768 10.7676V55.2715Z" fill="#0C0C0C"/>
<path d="M55.3933 0L55.3933 125H54.4317L54.4317 0L55.3933 0Z" fill="#0C0C0C"/>
</svg>
